<!-- <svg class="w-5 h-5 text-white"
        viewBox="0 0 24 24"
        fill="none">
<path d="M12 4.75L19.25 9L12 13.25L4.75 9L12 4.75Z"
        stroke="currentColor"
        stroke-width="1.5"
        stroke-linecap="round"
        stroke-linejoin="round"></path>
<path d="M9.25 12L4.75 15L12 19.25L19.25 15L14.6722 12"
        stroke="currentColor"
        stroke-width="1.5"
        stroke-linecap="round"
        stroke-linejoin="round"></path>
</svg> -->

<!-- <svg xmlns="http://www.w3.org/2000/svg" class="h-5 w-5 text-white" viewBox="0 0 20 20" fill="currentColor">
  <path d="M8.433 7.418c.155-.103.346-.196.567-.267v1.698a2.305 2.305 0 01-.567-.267C8.07 8.34 8 8.114 8 8c0-.114.07-.34.433-.582zM11 12.849v-1.698c.22.071.412.164.567.267.364.243.433.468.433.582 0 .114-.07.34-.433.582a2.305 2.305 0 01-.567.267z" />
  <path fill-rule="evenodd" d="M10 18a8 8 0 100-16 8 8 0 000 16zm1-13a1 1 0 10-2 0v.092a4.535 4.535 0 00-1.676.662C6.602 6.234 6 7.009 6 8c0 .99.602 1.765 1.324 2.246.48.32 1.054.545 1.676.662v1.941c-.391-.127-.68-.317-.843-.504a1 1 0 10-1.51 1.31c.562.649 1.413 1.076 2.353 1.253V15a1 1 0 102 0v-.092a4.535 4.535 0 001.676-.662C13.398 13.766 14 12.991 14 12c0-.99-.602-1.765-1.324-2.246A4.535 4.535 0 0011 9.092V7.151c.391.127.68.317.843.504a1 1 0 101.511-1.31c-.563-.649-1.413-1.076-2.354-1.253V5z" clip-rule="evenodd" />
</svg> -->

<svg version="1.1" id="Layer_1" xmlns="http://www.w3.org/2000/svg" xmlns:xlink="http://www.w3.org/1999/xlink" x="0px" y="0px"
	 viewBox="0 0 512 512" style="enable-background:new 0 0 512 512;" xml:space="preserve">
<style type="text/css">
	.st0{fill:#C5E9F9;}
	.st1{fill:#5E889E;}
</style>
<circle class="st0" cx="256.3281" cy="255.9678" r="248.873"/>
<path class="st1" d="M256.0941,188.617c-44.3977,0-80.5134,36.1175-80.5134,80.5116s36.1157,80.5134,80.5134,80.5134
	c44.3923,0,80.5081-36.1193,80.5081-80.5134C336.6022,224.7345,300.4865,188.617,256.0941,188.617z M256.0941,331.7488
	c-34.5896,0-62.6237-28.0359-62.6237-62.6219c0-34.5842,28.0359-62.6201,62.6237-62.6201c34.5806,0,62.6166,28.0359,62.6166,62.6201
	C318.7107,303.7129,290.6748,331.7488,256.0941,331.7488z M395.6422,151.9395H116.5406c-12.338,0-22.3697,10.0335-22.3697,22.3643
	v23.2589h23.2589c3.2079,0,6.4105,1.222,8.8599,3.6695c2.444,2.4404,3.666,5.6501,3.666,8.8527v118.0837
	c0,3.2043-1.222,6.4141-3.666,8.8545c-2.4475,2.444-5.6501,3.6695-8.8599,3.6695H94.1709v23.2589
	c0,12.329,10.03,22.3661,22.3697,22.3661h279.1016c12.3344,0,22.3661-10.0371,22.3661-22.3661V174.302
	C418.0084,161.9731,407.9766,151.9395,395.6422,151.9395z M256.0941,358.586c-49.4091,0-89.4627-40.0518-89.4627-89.4592
	c0-49.4055,40.0536-89.4574,89.4627-89.4574c49.4019,0,89.452,40.0536,89.452,89.4574
	C345.5461,318.5342,305.4961,358.586,256.0941,358.586z M379.3735,201.4774c-6.0223,0-10.903-4.8826-10.903-10.9031
	c0-6.0187,4.8808-10.9048,10.903-10.9048c6.0169,0,10.903,4.8862,10.903,10.9048
	C390.2766,196.593,385.3922,201.4774,379.3735,201.4774z M395.6422,134.9426h-21.7668v-8.0512c0-1.3741-0.5242-2.7481-1.5727-3.7966
	c-1.0449-1.0484-2.4225-1.5727-3.7966-1.5727h-25.048c-1.3741,0-2.7464,0.5242-3.7966,1.5727
	c-1.0413,1.0484-1.5691,2.4225-1.5691,3.7966v8.0512h-27.8839l-14.1754-21.2587c-1.1003-1.6639-2.6175-3.0863-4.5105-4.0972
	c-1.8822-1.0073-3.9111-1.4814-5.906-1.4814h-58.158c-2.0021,0-4.0256,0.4741-5.9095,1.4814
	c-1.8858,1.0109-3.4012,2.4314-4.5158,4.0972l-14.1718,21.2587H174.085v-8.0512c0-1.3741-0.5224-2.7481-1.5691-3.7966
	c-1.052-1.0484-2.4189-1.5727-3.7966-1.5727h-25.048c-1.3705,0-2.7446,0.5242-3.7966,1.5727
	c-1.0449,1.0484-1.5691,2.4225-1.5691,3.7966v8.0512h-21.765c-21.6558,0-39.3666,17.7108-39.3666,39.3612v189.6496
	c0,21.6505,17.7108,39.3612,39.3666,39.3612h279.1016c21.6541,0,39.3613-17.7108,39.3613-39.3612V174.3038
	C435.0035,152.6534,417.2963,134.9426,395.6422,134.9426z M422.4813,363.9535c0,14.798-12.0392,26.8354-26.839,26.8354H116.5406
	c-14.8016,0-26.8408-12.0374-26.8408-26.8354V174.3038c0-14.7962,12.0392-26.8354,26.8408-26.8354h279.1016
	c14.798,0,26.839,12.0392,26.839,26.8354V363.9535z"/>
</svg>